<svg width="21" height="21" viewBox="0 0 21 21" fill="none" xmlns="http://www.w3.org/2000/svg">
<g clip-path="url(#clip0_535_232)">
<path d="M1.28547 10.2266C1.28547 12.5472 2.23351 14.7728 3.92102 16.4137C5.60853 18.0547 7.89729 18.9766 10.2838 18.9766C12.6703 18.9766 14.9591 18.0547 16.6466 16.4137C18.3341 14.7728 19.2821 12.5472 19.2821 10.2266C19.2821 7.90592 18.3341 5.68032 16.6466 4.03938C14.9591 2.39843 12.6703 1.47656 10.2838 1.47656C7.89729 1.47656 5.60853 2.39843 3.92102 4.03938C2.23351 5.68032 1.28547 7.90592 1.28547 10.2266ZM20.5676 10.2266C20.5676 12.8787 19.4841 15.4223 17.5555 17.2976C15.627 19.173 13.0112 20.2266 10.2838 20.2266C7.55636 20.2266 4.94064 19.173 3.01205 17.2976C1.08347 15.4223 0 12.8787 0 10.2266C0 7.5744 1.08347 5.03086 3.01205 3.15549C4.94064 1.28013 7.55636 0.226563 10.2838 0.226562C13.0112 0.226563 15.627 1.28013 17.5555 3.15549C19.4841 5.03086 20.5676 7.5744 20.5676 10.2266ZM10.4715 6.46656C8.91348 6.46656 7.99437 7.61656 7.99437 9.59406V10.9191C7.99437 12.8828 8.89805 13.9966 10.4715 13.9966C11.73 13.9966 12.5809 13.2641 12.6941 12.2241H14.3587V12.3403C14.2302 14.1503 12.6182 15.4241 10.4638 15.4241C7.77584 15.4241 6.26155 13.7541 6.26155 10.9203V9.57906C6.26155 6.75281 7.8054 5.03156 10.465 5.03156C12.6259 5.03156 14.2379 6.34906 14.3587 8.24656V8.35656H12.6941C12.5809 7.25781 11.7068 6.46656 10.4715 6.46656Z" fill="white"/>
</g>
<defs>
<clipPath id="clip0_535_232">
<rect width="20.5676" height="20" fill="white" transform="translate(0 0.226562)"/>
</clipPath>
</defs>
</svg>
