<svg width="20" height="16" viewBox="0 0 20 16" fill="none" xmlns="http://www.w3.org/2000/svg">
<path d="M10.7041 0.454073C10.5992 0.558589 10.516 0.68278 10.4592 0.819525C10.4024 0.956271 10.3732 1.10288 10.3732 1.25095C10.3732 1.39901 10.4024 1.54562 10.4592 1.68237C10.516 1.81911 10.5992 1.94331 10.7041 2.04782L15.5313 6.87501L1.75 6.87501C1.45163 6.87501 1.16548 6.99354 0.954504 7.20451C0.743527 7.41549 0.625 7.70164 0.625 8.00001C0.625 8.29838 0.743527 8.58453 0.954504 8.7955C1.16548 9.00648 1.45163 9.12501 1.75 9.12501L15.5313 9.12501L10.7041 13.9541C10.4927 14.1654 10.374 14.4521 10.374 14.7509C10.374 15.0498 10.4927 15.3365 10.7041 15.5478C10.9154 15.7592 11.2021 15.8779 11.5009 15.8779C11.7998 15.8779 12.0865 15.7592 12.2978 15.5478L19.0478 8.79782C19.1527 8.69331 19.2359 8.56911 19.2927 8.43237C19.3495 8.29562 19.3787 8.14901 19.3787 8.00095C19.3787 7.85288 19.3495 7.70627 19.2927 7.56953C19.2359 7.43278 19.1527 7.30859 19.0478 7.20407L12.2978 0.454073C12.1933 0.349192 12.0691 0.265976 11.9324 0.209195C11.7956 0.152414 11.649 0.123184 11.5009 0.123184C11.3529 0.123184 11.2063 0.152414 11.0695 0.209195C10.9328 0.265976 10.8086 0.349192 10.7041 0.454073Z" fill="#1F2545"/>
</svg>
