<svg width="54" height="18" viewBox="0 0 54 18" fill="none" xmlns="http://www.w3.org/2000/svg">
<path fill-rule="evenodd" clip-rule="evenodd" d="M12.293 5.19539C12.1055 5.32054 12.0002 5.49026 12.0002 5.66722C12.0002 5.84418 12.1055 6.0139 12.293 6.13904L16.5861 9.00403L12.293 11.869C12.1108 11.9949 12.01 12.1635 12.0123 12.3384C12.0146 12.5134 12.1198 12.6808 12.3052 12.8045C12.4906 12.9283 12.7414 12.9985 13.0036 13C13.2658 13.0015 13.5184 12.9342 13.707 12.8127L18.7072 9.47585C18.8947 9.3507 19 9.18099 19 9.00403C19 8.82707 18.8947 8.65735 18.7072 8.5322L13.707 5.19539C13.5195 5.07028 13.2652 5 13 5C12.7348 5 12.4805 5.07028 12.293 5.19539ZM6.2928 5.19539C6.10532 5.32054 6 5.49026 6 5.66722C6 5.84418 6.10532 6.0139 6.2928 6.13904L10.5859 9.00403L6.2928 11.869C6.11063 11.9949 6.00983 12.1635 6.01211 12.3384C6.01439 12.5134 6.11956 12.6808 6.30498 12.8045C6.49039 12.9283 6.74121 12.9985 7.00342 13C7.26562 13.0015 7.51823 12.9342 7.70684 12.8127L12.707 9.47585C12.8945 9.3507 12.9998 9.18099 12.9998 9.00403C12.9998 8.82707 12.8945 8.65735 12.707 8.5322L7.70684 5.19539C7.51931 5.07028 7.26499 5 6.99982 5C6.73465 5 6.48033 5.07028 6.2928 5.19539Z" fill="#95B3C9"/>
<path fill-rule="evenodd" clip-rule="evenodd" d="M23.8089 5.19539C23.6359 5.32054 23.5386 5.49026 23.5386 5.66722C23.5386 5.84418 23.6359 6.0139 23.8089 6.13904L27.7718 9.00403L23.8089 11.869C23.6408 11.9949 23.5477 12.1635 23.5498 12.3384C23.5519 12.5134 23.649 12.6808 23.8202 12.8045C23.9913 12.9283 24.2228 12.9985 24.4649 13C24.7069 13.0015 24.9401 12.9342 25.1142 12.8127L29.7297 9.47585C29.9028 9.3507 30 9.18099 30 9.00403C30 8.82707 29.9028 8.65735 29.7297 8.5322L25.1142 5.19539C24.9411 5.07028 24.7063 5 24.4616 5C24.2168 5 23.982 5.07028 23.8089 5.19539ZM18.2703 5.19539C18.0972 5.32054 18 5.49026 18 5.66722C18 5.84418 18.0972 6.0139 18.2703 6.13904L22.2332 9.00403L18.2703 11.869C18.1021 11.9949 18.0091 12.1635 18.0112 12.3384C18.0133 12.5134 18.1104 12.6808 18.2815 12.8045C18.4527 12.9283 18.6842 12.9985 18.9262 13C19.1683 13.0015 19.4014 12.9342 19.5755 12.8127L24.1911 9.47585C24.3641 9.3507 24.4614 9.18099 24.4614 9.00403C24.4614 8.82707 24.3641 8.65735 24.1911 8.5322L19.5755 5.19539C19.4024 5.07028 19.1677 5 18.9229 5C18.6781 5 18.4434 5.07028 18.2703 5.19539Z" fill="#95B3C9"/>
<path fill-rule="evenodd" clip-rule="evenodd" d="M35.293 5.19539C35.1055 5.32054 35.0002 5.49026 35.0002 5.66722C35.0002 5.84418 35.1055 6.0139 35.293 6.13904L39.5861 9.00403L35.293 11.869C35.1108 11.9949 35.01 12.1635 35.0123 12.3384C35.0146 12.5134 35.1198 12.6808 35.3052 12.8045C35.4906 12.9283 35.7414 12.9985 36.0036 13C36.2658 13.0015 36.5184 12.9342 36.707 12.8127L41.7072 9.47585C41.8947 9.3507 42 9.18099 42 9.00403C42 8.82707 41.8947 8.65735 41.7072 8.5322L36.707 5.19539C36.5195 5.07028 36.2652 5 36 5C35.7348 5 35.4805 5.07028 35.293 5.19539ZM29.2928 5.19539C29.1053 5.32054 29 5.49026 29 5.66722C29 5.84418 29.1053 6.0139 29.2928 6.13904L33.5859 9.00403L29.2928 11.869C29.1106 11.9949 29.0098 12.1635 29.0121 12.3384C29.0144 12.5134 29.1196 12.6808 29.305 12.8045C29.4904 12.9283 29.7412 12.9985 30.0034 13C30.2656 13.0015 30.5182 12.9342 30.7068 12.8127L35.707 9.47585C35.8945 9.3507 35.9998 9.18099 35.9998 9.00403C35.9998 8.82707 35.8945 8.65735 35.707 8.5322L30.7068 5.19539C30.5193 5.07028 30.265 5 29.9998 5C29.7346 5 29.4803 5.07028 29.2928 5.19539Z" fill="#95B3C9"/>
<path fill-rule="evenodd" clip-rule="evenodd" d="M47.293 5.19539C47.1055 5.32054 47.0002 5.49026 47.0002 5.66722C47.0002 5.84418 47.1055 6.0139 47.293 6.13904L51.5861 9.00403L47.293 11.869C47.1108 11.9949 47.01 12.1635 47.0123 12.3384C47.0146 12.5134 47.1198 12.6808 47.3052 12.8045C47.4906 12.9283 47.7414 12.9985 48.0036 13C48.2658 13.0015 48.5184 12.9342 48.707 12.8127L53.7072 9.47585C53.8947 9.3507 54 9.18099 54 9.00403C54 8.82707 53.8947 8.65735 53.7072 8.5322L48.707 5.19539C48.5195 5.07028 48.2652 5 48 5C47.7348 5 47.4805 5.07028 47.293 5.19539ZM41.2928 5.19539C41.1053 5.32054 41 5.49026 41 5.66722C41 5.84418 41.1053 6.0139 41.2928 6.13904L45.5859 9.00403L41.2928 11.869C41.1106 11.9949 41.0098 12.1635 41.0121 12.3384C41.0144 12.5134 41.1196 12.6808 41.305 12.8045C41.4904 12.9283 41.7412 12.9985 42.0034 13C42.2656 13.0015 42.5182 12.9342 42.7068 12.8127L47.707 9.47585C47.8945 9.3507 47.9998 9.18099 47.9998 9.00403C47.9998 8.82707 47.8945 8.65735 47.707 8.5322L42.7068 5.19539C42.5193 5.07028 42.265 5 41.9998 5C41.7346 5 41.4803 5.07028 41.2928 5.19539Z" fill="#95B3C9"/>
</svg>
