<svg width="84" height="84" viewBox="0 0 84 84" fill="none" xmlns="http://www.w3.org/2000/svg">
<g clip-path="url(#clip0_549_222)">
<path d="M42 84C65.196 84 84 65.196 84 42C84 18.804 65.196 0 42 0C18.804 0 0 18.804 0 42C0 65.196 18.804 84 42 84Z" fill="#F3BA2F"/>
<path d="M31.8045 37.8105L42 27.615L52.2007 37.8158L58.1333 31.8832L42 15.75L25.872 31.878L31.8045 37.8105ZM15.75 42L21.6825 36.0675L27.615 42L21.6825 47.9325L15.75 42ZM31.8045 46.1895L42 56.385L52.2007 46.1842L58.1333 52.1141L42 68.25L25.872 52.122L25.8641 52.1141L31.8045 46.1895ZM56.385 42L62.3175 36.0675L68.25 42L62.3175 47.9325L56.385 42ZM48.0165 41.9948H48.0218V42L42 48.0218L35.9861 42.0105L35.9756 42L35.9861 41.9921L37.0387 40.9369L37.5506 40.425L42 35.9783L48.0191 41.9974L48.0165 41.9948Z" fill="white"/>
</g>
<defs>
<clipPath id="clip0_549_222">
<rect width="84" height="84" fill="white"/>
</clipPath>
</defs>
</svg>
