<svg width="253" height="147" viewBox="0 0 253 147" fill="none" xmlns="http://www.w3.org/2000/svg">
<path d="M231.852 126V128.519L224.667 124.222L232.148 120.296L231.926 122.815C231.926 122.815 237.852 123.778 241.26 119.037C241.26 124.741 234.889 126 231.852 126Z" fill="#40B861"/>
<path d="M227.777 112.444V109.926L234.963 114.296L227.481 118.222L227.629 115.704C227.629 115.704 221.703 114.741 218.296 119.481C218.37 113.704 224.666 112.444 227.777 112.444Z" fill="#40B861"/>
<path d="M96 5C96 18.2364 88.5655 52.9818 69.1613 52.9818C44 52.9818 24 78.5 24 97" stroke="#42DBDF" stroke-width="2" stroke-dasharray="3 3"/>
<path d="M158 5C158 18.2364 165.435 52.9818 184.839 52.9818C210 52.9818 230 78.5 230 97" stroke="#42DBDF" stroke-width="2" stroke-dasharray="3 3"/>
<path d="M127 1V100" stroke="#42DBDF" stroke-width="2" stroke-linecap="round" stroke-dasharray="3 3"/>
<circle cx="23.5" cy="118.5" r="22.5" stroke="#42DBDF" stroke-width="2"/>
<circle cx="229.5" cy="118.5" r="22.5" stroke="#42DBDF" stroke-width="2"/>
<circle cx="126.5" cy="123.5" r="22.5" stroke="#42DBDF" stroke-width="2"/>
<g clip-path="url(#clip0_917_1235)">
<path d="M19.2519 116.754L23.5 112.506L27.7503 116.757L30.2222 114.285L23.5 107.562L16.78 114.283L19.2519 116.754ZM12.5625 118.5L15.0344 116.028L17.5063 118.5L15.0344 120.972L12.5625 118.5ZM19.2519 120.246L23.5 124.494L27.7503 120.243L30.2222 122.714L23.5 129.438L16.78 122.718L16.7767 122.714L19.2519 120.246ZM29.4937 118.5L31.9656 116.028L34.4375 118.5L31.9656 120.972L29.4937 118.5ZM26.0069 118.498H26.0091V118.5L23.5 121.009L20.9942 118.504L20.9898 118.5L20.9942 118.497L21.4328 118.057L21.6461 117.844L23.5 115.991L26.008 118.499L26.0069 118.498Z" fill="#F3BA2F"/>
</g>
<g clip-path="url(#clip1_917_1235)">
<path d="M122.252 121.754L126.5 117.506L130.75 121.757L133.222 119.285L126.5 112.562L119.78 119.283L122.252 121.754ZM115.562 123.5L118.034 121.028L120.506 123.5L118.034 125.972L115.562 123.5ZM122.252 125.246L126.5 129.494L130.75 125.243L133.222 127.714L126.5 134.438L119.78 127.718L119.777 127.714L122.252 125.246ZM132.494 123.5L134.966 121.028L137.438 123.5L134.966 125.972L132.494 123.5ZM129.007 123.498H129.009V123.5L126.5 126.009L123.994 123.504L123.99 123.5L123.994 123.497L124.433 123.057L124.646 122.844L126.5 120.991L129.008 123.499L129.007 123.498Z" fill="#F3BA2F"/>
</g>
<defs>
<clipPath id="clip0_917_1235">
<rect width="35" height="35" fill="white" transform="translate(6 101)"/>
</clipPath>
<clipPath id="clip1_917_1235">
<rect width="35" height="35" fill="white" transform="translate(109 106)"/>
</clipPath>
</defs>
</svg>
