<svg width="24" height="24" viewBox="0 0 24 24" fill="none" xmlns="http://www.w3.org/2000/svg">
<path d="M9 3.25C7.47501 3.25 6.01247 3.8558 4.93414 4.93414C3.8558 6.01247 3.25 7.47501 3.25 9V16.107C3.25 16.3059 3.32902 16.4967 3.46967 16.6373C3.61032 16.778 3.80109 16.857 4 16.857C4.19891 16.857 4.38968 16.778 4.53033 16.6373C4.67098 16.4967 4.75 16.3059 4.75 16.107V9C4.75 7.87283 5.19777 6.79183 5.9948 5.9948C6.79183 5.19777 7.87283 4.75 9 4.75H16.013C16.2119 4.75 16.4027 4.67098 16.5433 4.53033C16.684 4.38968 16.763 4.19891 16.763 4C16.763 3.80109 16.684 3.61032 16.5433 3.46967C16.4027 3.32902 16.2119 3.25 16.013 3.25H9Z" fill="white"/>
<path fill-rule="evenodd" clip-rule="evenodd" d="M18.4034 6.793C15.1448 6.43071 11.8561 6.43071 8.59744 6.793C8.14657 6.84326 7.72594 7.0445 7.40389 7.36401C7.08183 7.68352 6.87727 8.10255 6.82344 8.553C6.43906 11.8395 6.43906 15.1595 6.82344 18.446C6.8771 18.8965 7.0816 19.3156 7.40369 19.6352C7.72578 19.9547 8.14651 20.1559 8.59744 20.206C11.8384 20.569 15.1624 20.569 18.4034 20.206C18.8544 20.1559 19.2751 19.9547 19.5972 19.6352C19.9193 19.3156 20.1238 18.8965 20.1774 18.446C20.5618 15.1595 20.5618 11.8395 20.1774 8.553C20.1236 8.10255 19.9191 7.68352 19.597 7.36401C19.2749 7.0445 18.8543 6.84326 18.4034 6.793ZM8.76444 8.284C11.8944 7.934 15.1064 7.934 18.2364 8.284C18.3505 8.29662 18.4569 8.34731 18.5385 8.42787C18.6202 8.50843 18.6723 8.61417 18.6864 8.728C19.0584 11.8985 19.0584 15.1015 18.6864 18.272C18.6723 18.3858 18.6202 18.4916 18.5385 18.5721C18.4569 18.6527 18.3505 18.7034 18.2364 18.716C15.1064 19.066 11.8944 19.066 8.76444 18.716C8.6505 18.7032 8.54416 18.6525 8.46254 18.5719C8.38092 18.4914 8.32876 18.3858 8.31444 18.272C7.94245 15.1015 7.94245 11.8985 8.31444 8.728C8.32876 8.61424 8.38092 8.5086 8.46254 8.42807C8.54416 8.34753 8.6505 8.29679 8.76444 8.284Z" fill="white"/>
</svg>
