<svg width="24" height="24" viewBox="0 0 24 24" fill="none" xmlns="http://www.w3.org/2000/svg">
<path d="M9 3.25C7.47501 3.25 6.01247 3.8558 4.93414 4.93414C3.8558 6.01247 3.25 7.47501 3.25 9V16.107C3.25 16.3059 3.32902 16.4967 3.46967 16.6373C3.61032 16.778 3.80109 16.857 4 16.857C4.19891 16.857 4.38968 16.778 4.53033 16.6373C4.67098 16.4967 4.75 16.3059 4.75 16.107V9C4.75 7.87283 5.19777 6.79183 5.9948 5.9948C6.79183 5.19777 7.87283 4.75 9 4.75H16.013C16.2119 4.75 16.4027 4.67098 16.5433 4.53033C16.684 4.38968 16.763 4.19891 16.763 4C16.763 3.80109 16.684 3.61032 16.5433 3.46967C16.4027 3.32902 16.2119 3.25 16.013 3.25H9Z" fill="white"/>
<path fill-rule="evenodd" clip-rule="evenodd" d="M18.403 6.79302C15.1443 6.43073 11.8556 6.43073 8.59695 6.79302C8.14608 6.84328 7.72545 7.04451 7.4034 7.36402C7.08134 7.68354 6.87678 8.10256 6.82295 8.55302C6.43857 11.8395 6.43857 15.1596 6.82295 18.446C6.87661 18.8965 7.08112 19.3157 7.4032 19.6352C7.72529 19.9548 8.14602 20.1559 8.59695 20.206C11.838 20.569 15.162 20.569 18.403 20.206C18.8539 20.1559 19.2746 19.9548 19.5967 19.6352C19.9188 19.3157 20.1233 18.8965 20.177 18.446C20.5614 15.1596 20.5614 11.8395 20.177 8.55302C20.1231 8.10256 19.9186 7.68354 19.5965 7.36402C19.2745 7.04451 18.8538 6.84328 18.403 6.79302ZM8.76395 8.28402C11.894 7.93402 15.106 7.93402 18.236 8.28402C18.35 8.29664 18.4564 8.34732 18.538 8.42789C18.6197 8.50845 18.6718 8.61419 18.686 8.72802C19.058 11.8985 19.058 15.1016 18.686 18.272C18.6718 18.3858 18.6197 18.4916 18.538 18.5722C18.4564 18.6527 18.35 18.7034 18.236 18.716C15.106 19.066 11.894 19.066 8.76395 18.716C8.65001 18.7032 8.54368 18.6525 8.46206 18.572C8.38044 18.4914 8.32827 18.3858 8.31395 18.272C7.94196 15.1016 7.94196 11.8985 8.31395 8.72802C8.32827 8.61425 8.38044 8.50861 8.46206 8.42808C8.54368 8.34755 8.65001 8.29681 8.76395 8.28402Z" fill="white"/>
</svg>
