<svg width="34" height="34" viewBox="0 0 34 34" fill="none" xmlns="http://www.w3.org/2000/svg">
<path d="M11.6877 32.0344V24.7031L6.21582 28.7406C7.75644 30.175 9.61582 31.2906 11.6877 32.0344ZM22.3127 32.0344C24.3846 31.2906 26.2439 30.175 27.7846 28.7406L22.3127 24.65V32.0344ZM1.96582 22.3125C2.1252 22.8438 2.3377 23.3219 2.60332 23.8531L4.6752 22.3125H1.96582ZM29.3252 22.3125L31.3971 23.8531C31.6096 23.375 31.8221 22.8438 32.0346 22.3125H29.3252Z" fill="#2A5F9E"/>
<path d="M12.4845 20.1875H1.38135C1.54072 20.9312 1.75322 21.6219 1.96572 22.3125H4.6751L2.60322 23.8531C3.02822 24.7563 3.50635 25.5531 4.09072 26.35L9.5626 22.3125H11.6876V23.375L5.47197 27.9437L6.21572 28.6875L11.6876 24.7031V32.0344C12.3782 32.3 13.0688 32.4594 13.8126 32.6188V20.1875H12.4845ZM32.6188 20.1875H20.1876V32.6188C20.9313 32.4594 21.622 32.2469 22.3126 32.0344V24.7031L27.7845 28.6875C28.5282 27.9969 29.1657 27.2531 29.8032 26.4562L24.1188 22.3125H27.7313L30.972 24.7031C31.1313 24.4375 31.2907 24.1188 31.397 23.8531L29.3251 22.3125H32.0345C32.247 21.6219 32.4595 20.9312 32.6188 20.1875Z" fill="white"/>
<path d="M4.09082 26.35C4.51582 26.9344 4.94082 27.4656 5.41895 27.9969L11.6877 23.4281V22.3656H9.5627L4.09082 26.35ZM24.1721 22.3125L29.8564 26.4562C30.0689 26.1906 30.2283 25.925 30.4408 25.6594C30.4939 25.6062 30.4939 25.5531 30.5471 25.5531C30.7064 25.2875 30.9189 24.9688 31.0783 24.7031L27.7314 22.3125H24.1721Z" fill="#ED4C5C"/>
<path d="M22.3127 1.96562V9.29687L27.7846 5.25937C26.2439 3.825 24.3846 2.70937 22.3127 1.96562ZM11.6877 1.96562C9.61582 2.70937 7.75644 3.825 6.21582 5.25937L11.6877 9.35V1.96562ZM32.0346 11.6875C31.8752 11.1562 31.6627 10.6781 31.3971 10.1469L29.3252 11.6875H32.0346ZM4.6752 11.6875L2.60332 10.1469C2.39082 10.6781 2.17832 11.1562 1.96582 11.6875H4.6752Z" fill="#2A5F9E"/>
<path d="M21.5157 13.8125H32.5657C32.4064 13.0688 32.1939 12.3781 31.9814 11.6875H29.272L31.3439 10.1469C30.9189 9.24376 30.4407 8.44688 29.8564 7.65L24.4376 11.6875H22.3126V10.625L28.5282 6.05626L27.7845 5.31251L22.3126 9.29688V1.96563C21.622 1.70001 20.9314 1.54063 20.1876 1.38126V13.8125H21.5157ZM1.38135 13.8125H13.8126V1.38126C13.0688 1.54063 12.3782 1.75313 11.6876 1.96563V9.29688L6.21572 5.31251C5.47197 6.00313 4.83447 6.74688 4.19697 7.54376L9.88135 11.6875H6.26885L3.02822 9.29688C2.86885 9.5625 2.70947 9.88126 2.60322 10.1469L4.6751 11.6875H1.96572C1.75322 12.3781 1.54072 13.0688 1.38135 13.8125Z" fill="white"/>
<path d="M29.9095 7.65C29.4845 7.06563 29.0595 6.53438 28.5814 6.00313L22.3126 10.5719V11.6344H24.4376L29.9095 7.65ZM9.82822 11.6875L4.19697 7.54375C3.98447 7.80938 3.8251 8.075 3.6126 8.34063C3.55947 8.39375 3.55947 8.44688 3.50635 8.44688C3.34697 8.7125 3.13447 9.03125 2.9751 9.29688L6.21572 11.6875H9.82822Z" fill="#ED4C5C"/>
<path d="M32.6188 13.8125H20.1875V1.38125C19.1781 1.16875 18.1156 1.0625 17 1.0625C15.8844 1.0625 14.8219 1.16875 13.8125 1.38125V13.8125H1.38125C1.16875 14.8219 1.0625 15.8844 1.0625 17C1.0625 18.1156 1.16875 19.1781 1.38125 20.1875H13.8125V32.6188C14.8219 32.8313 15.8844 32.9375 17 32.9375C18.1156 32.9375 19.1781 32.8313 20.1875 32.6188V20.1875H32.6188C32.8313 19.1781 32.9375 18.1156 32.9375 17C32.9375 15.8844 32.8313 14.8219 32.6188 13.8125Z" fill="#ED4C5C"/>
</svg>
