<svg width="24" height="24" viewBox="0 0 24 24" fill="none" xmlns="http://www.w3.org/2000/svg">
<path d="M12.3333 22C17.6719 22 22 17.672 22 12.3333C22 6.99469 17.6719 2.66666 12.3333 2.66666M12.3333 22C6.99466 22 2.66663 17.672 2.66663 12.3333C2.66663 6.99469 6.99466 2.66666 12.3333 2.66666M12.3333 22C14.9697 22 15.8484 17.6061 15.8484 12.3333C15.8484 7.0606 14.9697 2.66666 12.3333 2.66666M12.3333 22C9.69693 22 8.81814 17.6061 8.81814 12.3333C8.81814 7.0606 9.69693 2.66666 12.3333 2.66666M3.54541 15.8485H21.1212M3.54541 8.81818H21.1212" stroke="white" stroke-width="1.5"/>
</svg>
