<svg width="42" height="44" viewBox="0 0 42 44" fill="none" xmlns="http://www.w3.org/2000/svg">
<rect x="0.5" y="0.5" width="41" height="43" rx="20.5" fill="white"/>
<path d="M27 22.9979H22C15 22.9979 27 22.9979 20 22.9979H15C14.7348 22.9979 14.4804 22.8926 14.2929 22.705C14.1054 22.5175 14 22.2631 14 21.9979C14 21.7327 14.1054 21.4784 14.2929 21.2908C14.4804 21.1033 14.7348 20.9979 15 20.9979H20C27 20.9983 16.5 20.9969 22 20.9979H27C27.2652 20.9979 27.5196 21.1033 27.7071 21.2908C27.8946 21.4784 28 21.7327 28 21.9979C28 22.2631 27.8946 22.5175 27.7071 22.705C27.5196 22.8926 27.2652 22.9979 27 22.9979Z" fill="#20ABAD"/>
<rect x="0.5" y="0.5" width="41" height="43" rx="20.5" stroke="white"/>
</svg>
