<svg width="24" height="24" viewBox="0 0 24 24" fill="none" xmlns="http://www.w3.org/2000/svg">
<path d="M6.42895 2.41299C6.55502 2.26252 6.61707 2.06861 6.60178 1.8729C6.58649 1.67719 6.49508 1.49527 6.34716 1.36621C6.19925 1.23714 6.00662 1.17121 5.81064 1.18258C5.61466 1.19394 5.43095 1.2817 5.29895 1.42699L4.00695 2.90699C3.27433 3.74656 2.86018 4.81696 2.83695 5.93099L2.77995 8.64999C2.77583 8.84891 2.85091 9.04131 2.98866 9.18486C3.1264 9.32842 3.31553 9.41138 3.51445 9.41549C3.71336 9.41961 3.90576 9.34453 4.04932 9.20678C4.19287 9.06904 4.27583 8.87991 4.27995 8.68099L4.33595 5.96299C4.35199 5.20072 4.63552 4.46835 5.13695 3.89399L6.42895 2.41299Z" fill="white"/>
<path fill-rule="evenodd" clip-rule="evenodd" d="M6.23695 7.7C6.30411 6.63014 6.77647 5.62608 7.55787 4.89224C8.33928 4.15839 9.37098 3.74993 10.4429 3.75H10.9999V3C10.9999 2.73478 11.1053 2.48043 11.2928 2.29289C11.4804 2.10536 11.7347 2 11.9999 2C12.2652 2 12.5195 2.10536 12.7071 2.29289C12.8946 2.48043 12.9999 2.73478 12.9999 3V3.75H13.5569C14.6289 3.74993 15.6606 4.15839 16.442 4.89224C17.2234 5.62608 17.6958 6.63014 17.7629 7.7L17.9839 11.234C18.0682 12.5815 18.5206 13.88 19.2919 14.988C19.4513 15.2171 19.5487 15.4835 19.5746 15.7613C19.6005 16.0392 19.5541 16.319 19.4398 16.5736C19.3256 16.8281 19.1474 17.0488 18.9226 17.2142C18.6978 17.3795 18.434 17.4838 18.1569 17.517L14.7499 17.925V19C14.7499 19.7293 14.4602 20.4288 13.9445 20.9445C13.4288 21.4603 12.7293 21.75 11.9999 21.75C11.2706 21.75 10.5711 21.4603 10.0554 20.9445C9.53968 20.4288 9.24995 19.7293 9.24995 19V17.925L5.84295 17.516C5.56604 17.4827 5.30246 17.3784 5.0778 17.2131C4.85313 17.0478 4.67503 16.8273 4.5608 16.5729C4.44657 16.3184 4.40009 16.0388 4.42587 15.7611C4.45165 15.4834 4.54883 15.2171 4.70795 14.988C5.47925 13.8799 5.93168 12.5814 6.01595 11.234L6.23695 7.701V7.7ZM10.7499 19C10.7499 19.3315 10.8816 19.6495 11.1161 19.8839C11.3505 20.1183 11.6684 20.25 11.9999 20.25C12.3315 20.25 12.6494 20.1183 12.8838 19.8839C13.1183 19.6495 13.2499 19.3315 13.2499 19V18.25H10.7499V19Z" fill="white"/>
<path d="M17.643 1.355C17.4932 1.48577 17.4015 1.67069 17.388 1.86909C17.3745 2.06749 17.4403 2.26314 17.571 2.413L18.863 3.893C19.3643 4.46776 19.6475 5.20051 19.663 5.963L19.72 8.68C19.7221 8.77849 19.7435 8.87562 19.783 8.96583C19.8226 9.05605 19.8796 9.13759 19.9506 9.20579C20.0217 9.274 20.1056 9.32753 20.1973 9.36334C20.2891 9.39915 20.387 9.41654 20.4855 9.4145C20.584 9.41247 20.6811 9.39105 20.7714 9.35148C20.8616 9.31191 20.9431 9.25495 21.0113 9.18387C21.0795 9.11279 21.133 9.02897 21.1689 8.93719C21.2047 8.84542 21.2221 8.74749 21.22 8.649L21.163 5.931C21.1398 4.81697 20.7256 3.74657 19.993 2.907L18.701 1.427C18.5702 1.27719 18.3853 1.18545 18.1869 1.17194C17.9885 1.15844 17.7929 1.22429 17.643 1.355Z" fill="white"/>
</svg>
