<svg width="76" height="76" viewBox="0 0 76 76" fill="none" xmlns="http://www.w3.org/2000/svg">
<g clip-path="url(#clip0_549_1238)">
<path d="M28.7755 34.2095L38 24.985L47.2292 34.2143L52.5967 28.8468L38 14.25L23.408 28.842L28.7755 34.2095ZM14.25 38L19.6175 32.6325L24.985 38L19.6175 43.3675L14.25 38ZM28.7755 41.7905L38 51.015L47.2292 41.7857L52.5967 47.1509L38 61.75L23.408 47.158L23.4009 47.1509L28.7755 41.7905ZM51.015 38L56.3825 32.6325L61.75 38L56.3825 43.3675L51.015 38ZM43.4435 37.9953H43.4483V38L38 43.4483L32.5589 38.0095L32.5494 38L32.5589 37.9929L33.5112 37.0381L33.9744 36.575L38 32.5518L43.4459 37.9976L43.4435 37.9953Z" fill="#F3BA2F"/>
</g>
<defs>
<clipPath id="clip0_549_1238">
<rect width="76" height="76" fill="white"/>
</clipPath>
</defs>
</svg>
