<svg width="96" height="96" viewBox="0 0 96 96" fill="none" xmlns="http://www.w3.org/2000/svg">
<path d="M72.2997 6.216L88.9917 23.616V89.784H26.6367V90H89.2047V23.835L72.2997 6.216Z" fill="#909090"/>
<path d="M72.0928 6H26.4238V89.784H88.9918V23.619L72.0928 6Z" fill="#F4F4F4"/>
<path d="M25.9649 10.5H6.79492V30.981H67.0949V10.5H25.9649Z" fill="#7A7B7C"/>
<path d="M67.4156 30.633H7.18457V10.137H67.4156V30.633Z" fill="#DD2025"/>
<path d="M27.1564 13.602H23.2354V28.002H26.3194V23.145L27.0004 23.184C27.6621 23.1726 28.3176 23.0541 28.9414 22.833C29.4883 22.6449 29.9914 22.3479 30.4204 21.96C30.8568 21.5905 31.201 21.1241 31.4254 20.598C31.7262 19.7235 31.8337 18.7941 31.7404 17.874C31.7216 17.2167 31.6064 16.5658 31.3984 15.942C31.209 15.4917 30.9279 15.0858 30.5731 14.7501C30.2183 14.4144 29.7974 14.1562 29.3374 13.992C28.9396 13.848 28.5286 13.7435 28.1104 13.68C27.7936 13.6311 27.4738 13.6051 27.1534 13.602M26.5864 20.484H26.3194V16.044H26.8984C27.1539 16.0256 27.4103 16.0648 27.6486 16.1588C27.887 16.2528 28.1012 16.3991 28.2754 16.587C28.6363 17.07 28.8291 17.658 28.8244 18.261C28.8244 18.999 28.8244 19.668 28.1584 20.139C27.6786 20.4029 27.1324 20.5247 26.5864 20.484ZM37.5994 13.563C37.2664 13.563 36.9424 13.587 36.7144 13.596L36.0004 13.614H33.6604V28.014H36.4144C37.4668 28.0429 38.5147 27.8645 39.4984 27.489C40.2901 27.175 40.9912 26.6687 41.5384 26.016C42.0704 25.3574 42.4523 24.5905 42.6574 23.769C42.893 22.8386 43.008 21.8817 42.9994 20.922C43.0575 19.7885 42.9698 18.6522 42.7384 17.541C42.5187 16.7231 42.1073 15.9693 41.5384 15.342C41.0919 14.8355 40.5455 14.4269 39.9334 14.142C39.4077 13.8988 38.8547 13.7195 38.2864 13.608C38.0603 13.5707 37.8314 13.5536 37.6024 13.557M37.0564 25.368H36.7564V16.176H36.7954C37.4138 16.1048 38.0396 16.2164 38.5954 16.497C39.0023 16.822 39.334 17.2314 39.5674 17.697C39.8192 18.187 39.9644 18.7248 39.9934 19.275C40.0204 19.935 39.9934 20.475 39.9934 20.922C40.0056 21.4369 39.9724 21.9519 39.8944 22.461C39.8019 22.9837 39.631 23.4894 39.3874 23.961C39.1116 24.3995 38.7391 24.7689 38.2984 25.041C37.9282 25.2804 37.4899 25.3921 37.0504 25.359M52.2904 13.614H45.0004V28.014H48.0844V22.302H51.9843V19.626H48.0844V16.29H52.2844V13.614" fill="#464648"/>
<path d="M65.3431 60.765C65.3431 60.765 74.9071 59.031 74.9071 62.298C74.9071 65.565 68.9821 64.236 65.3431 60.765ZM58.2721 61.014C56.7525 61.3498 55.2717 61.8414 53.8531 62.481L55.0531 59.781C56.253 57.081 57.4981 53.4 57.4981 53.4C58.93 55.81 60.596 58.073 62.472 60.156C61.0573 60.367 59.6552 60.6554 58.2721 61.02V61.014ZM54.4861 41.514C54.4861 38.667 55.4071 37.89 56.1241 37.89C56.8411 37.89 57.6481 38.235 57.6751 40.707C57.4415 43.1927 56.921 45.643 56.1241 48.009C55.0324 46.0225 54.4675 43.7897 54.483 41.523L54.4861 41.514ZM40.539 73.062C37.6051 71.307 46.6921 65.904 48.3391 65.73C48.3301 65.733 43.6111 74.898 40.539 73.062ZM77.7001 62.685C77.6701 62.385 77.4001 59.064 71.4901 59.205C69.0267 59.1653 66.5645 59.339 64.1311 59.724C61.7738 57.3492 59.7439 54.6706 58.0951 51.759C59.1339 48.7573 59.7626 45.629 59.9641 42.459C59.8771 38.859 59.0161 36.795 56.2561 36.825C53.4961 36.855 53.0941 39.27 53.4571 42.864C53.8126 45.2792 54.4833 47.6373 55.452 49.878C55.452 49.878 54.1771 53.847 52.4911 57.795C50.805 61.743 49.6531 63.813 49.6531 63.813C46.7212 64.7675 43.9613 66.1854 41.4781 68.013C39.0061 70.314 38.0011 72.081 39.3031 73.848C40.4251 75.372 44.3521 75.717 47.8621 71.118C49.727 68.7427 51.4308 66.2451 52.962 63.642C52.962 63.642 58.3141 62.175 59.9791 61.773C61.6441 61.371 63.6571 61.053 63.6571 61.053C63.6571 61.053 68.5441 65.97 73.2571 65.796C77.9701 65.622 77.7421 62.979 77.7121 62.691" fill="#DD2025"/>
<path d="M71.8623 6.23102V23.85H88.7613L71.8623 6.23102Z" fill="#909090"/>
<path d="M72.0928 6V23.619H88.9918L72.0928 6Z" fill="#F4F4F4"/>
<path d="M26.9249 13.371H23.0039V27.771H26.0999V22.917L26.7839 22.956C27.4456 22.9446 28.1011 22.8261 28.7249 22.605C29.2718 22.4168 29.7749 22.1198 30.2039 21.732C30.6371 21.3615 30.9781 20.8951 31.1999 20.37C31.5008 19.4955 31.6083 18.5661 31.5149 17.646C31.4962 16.9887 31.3809 16.3378 31.1729 15.714C30.9835 15.2637 30.7025 14.8578 30.3476 14.5221C29.9928 14.1863 29.572 13.9282 29.1119 13.764C28.7123 13.6186 28.2993 13.5131 27.8789 13.449C27.5622 13.4001 27.2424 13.3741 26.9219 13.371M26.3549 20.253H26.0879V15.813H26.6699C26.9254 15.7946 27.1819 15.8338 27.4202 15.9278C27.6585 16.0218 27.8727 16.1681 28.0469 16.356C28.4079 16.839 28.6007 17.427 28.5959 18.03C28.5959 18.768 28.5959 19.437 27.9299 19.908C27.4501 20.1719 26.904 20.2907 26.3579 20.25M37.3679 13.332C37.0349 13.332 36.7109 13.356 36.4829 13.365L35.7779 13.383H33.4379V27.783H36.1919C37.2444 27.8118 38.2923 27.6335 39.2759 27.258C40.0676 26.944 40.7687 26.4377 41.3159 25.785C41.848 25.1264 42.2299 24.3595 42.4349 23.538C42.6706 22.6076 42.7855 21.6507 42.7769 20.691C42.8351 19.5575 42.7474 18.4212 42.5159 17.31C42.2963 16.4921 41.8849 15.7383 41.3159 15.111C40.8695 14.6045 40.323 14.1959 39.7109 13.911C39.1852 13.6677 38.6323 13.4885 38.0639 13.377C37.8379 13.3396 37.609 13.3226 37.3799 13.326M36.8339 25.137H36.5339V15.945H36.5729C37.1914 15.8738 37.8172 15.9854 38.3729 16.266C38.7799 16.591 39.1115 17.0004 39.3449 17.466C39.5968 17.956 39.742 18.4938 39.7709 19.044C39.7979 19.704 39.7709 20.244 39.7709 20.691C39.7831 21.2059 39.75 21.7209 39.6719 22.23C39.5794 22.7527 39.4085 23.2584 39.1649 23.73C38.8892 24.1685 38.5166 24.5379 38.0759 24.81C37.7058 25.0494 37.2675 25.1611 36.8279 25.128M52.0589 13.383H44.7689V27.783H47.8529V22.071H51.7529V19.395H47.8529V16.059H52.0529V13.383" fill="white"/>
</svg>
