<svg width="42" height="44" viewBox="0 0 42 44" fill="none" xmlns="http://www.w3.org/2000/svg">
<rect width="42" height="44" rx="21" fill="#20ABAD"/>
<path d="M15 20.998L20 20.998L20 15.998C20 15.7328 20.1054 15.4785 20.2929 15.2909C20.4804 15.1034 20.7348 14.998 21 14.998C21.2652 14.998 21.5196 15.1034 21.7071 15.2909C21.8946 15.4785 22 15.7328 22 15.998L22 20.998L27 20.998C27.2652 20.998 27.5196 21.1034 27.7071 21.2909C27.8946 21.4785 28 21.7328 28 21.998C28 22.2633 27.8946 22.5176 27.7071 22.7052C27.5196 22.8927 27.2652 22.998 27 22.998L22 22.998L22 27.998C22 28.2633 21.8946 28.5176 21.7071 28.7052C21.5196 28.8927 21.2652 28.998 21 28.998C20.7348 28.998 20.4804 28.8927 20.2929 28.7052C20.1054 28.5176 20 28.2633 20 27.998L20 22.998L15 22.998C14.7348 22.998 14.4804 22.8927 14.2929 22.7052C14.1054 22.5176 14 22.2633 14 21.998C14 21.7328 14.1054 21.4785 14.2929 21.2909C14.4804 21.1034 14.7348 20.998 15 20.998Z" fill="white"/>
<rect x="0.5" y="0.5" width="41" height="43" rx="20.5" stroke="white" stroke-opacity="0.7"/>
</svg>
