<svg width="128" height="128" viewBox="0 0 128 128" fill="none" xmlns="http://www.w3.org/2000/svg">
<rect x="0.5" y="0.5" width="127" height="127" rx="9.5" fill="#070D30" stroke="url(#paint0_linear_561_2101)"/>
<circle cx="72" cy="86" r="7" fill="#0D5A85"/>
<path d="M61 30C61 31.7455 58.7935 35.8036 53.4516 36.3273C48.1097 36.8509 44.6452 40.1091 43 42" stroke="#A4C3CA" stroke-dasharray="3 3"/>
<path d="M66 30C66 31.7455 68.2065 35.8036 73.5484 36.3273C78.8903 36.8509 82.3548 40.1091 84 42" stroke="#A4C3CA" stroke-dasharray="3 3"/>
<path d="M89 62C89 64.4727 90.471 70.2218 94.0323 70.9636C97.5935 71.7055 99.9032 76.3212 101 79" stroke="#A4C3CA" stroke-dasharray="3 3"/>
<path d="M41 62C41 64.4727 42.471 70.2218 46.0323 70.9636C49.5935 71.7055 51.9032 76.3212 53 79" stroke="#A4C3CA" stroke-dasharray="3 3"/>
<path d="M86 62C86 64.4727 84.529 70.2218 80.9677 70.9636C77.4065 71.7055 75.0968 76.3212 74 79" stroke="#A4C3CA" stroke-dasharray="3 3"/>
<path d="M38 62C38 64.4727 36.529 70.2218 32.9677 70.9636C29.4065 71.7055 27.0968 76.3212 26 79" stroke="#A4C3CA" stroke-dasharray="3 3"/>
<circle cx="40" cy="52" r="9.5" fill="#20ABAD" stroke="#20ABAD"/>
<circle cx="87" cy="52" r="9.5" stroke="#20ABAD"/>
<circle cx="103" cy="86" r="6.5" stroke="#20ABAD"/>
<circle cx="55" cy="86" r="6.5" stroke="#20ABAD"/>
<circle cx="24" cy="86" r="7" fill="#0D5A85"/>
<defs>
<linearGradient id="paint0_linear_561_2101" x1="-8" y1="-7" x2="135" y2="138" gradientUnits="userSpaceOnUse">
<stop stop-color="#20ABAD"/>
<stop offset="0.50482" stop-color="#20ABAD" stop-opacity="0"/>
<stop offset="0.977967" stop-color="#20ABAD"/>
</linearGradient>
</defs>
</svg>
