<svg width="19" height="19" viewBox="0 0 19 19" fill="none" xmlns="http://www.w3.org/2000/svg">
<g clip-path="url(#clip0_561_2119)">
<path d="M6.33345 8.51834H5.87428C5.24768 8.49569 4.62311 8.60206 4.03933 8.83085C3.45556 9.05964 2.92503 9.40597 2.48067 9.84834L2.354 9.99611V14.3661H4.50734V11.8856L4.79762 11.5583L4.92956 11.4053C5.61669 10.6994 6.47214 10.1799 7.41539 9.89584C6.94314 9.53649 6.57068 9.06228 6.33345 8.51834Z" fill="#20ABAD"/>
<path d="M16.5406 9.8325C16.0962 9.39013 15.5657 9.0438 14.9819 8.81501C14.3981 8.58622 13.7735 8.47985 13.1469 8.5025C12.9548 8.50304 12.7627 8.51361 12.5717 8.53416C12.33 9.04447 11.9677 9.48827 11.5161 9.82722C12.5231 10.1058 13.4353 10.6531 14.155 11.4106L14.2869 11.5583L14.5719 11.8856V14.3714H16.6514V9.98027L16.5406 9.8325Z" fill="#20ABAD"/>
<path d="M5.85843 7.48917H6.02204C5.94602 6.83643 6.06055 6.17565 6.35181 5.58657C6.64307 4.9975 7.09861 4.50532 7.66343 4.16944C7.45869 3.85666 7.17622 3.6024 6.84369 3.43158C6.51116 3.26076 6.13996 3.17923 5.76646 3.19497C5.39295 3.21071 5.02993 3.32318 4.71295 3.52137C4.39597 3.71957 4.1359 3.99668 3.95819 4.32559C3.78049 4.65449 3.69125 5.02391 3.69922 5.39766C3.70719 5.77142 3.81208 6.1367 4.00364 6.45773C4.19519 6.77877 4.46684 7.04455 4.79197 7.22906C5.11711 7.41356 5.48459 7.51046 5.85843 7.51028V7.48917Z" fill="#20ABAD"/>
<path d="M12.8938 7.09334C12.9002 7.21465 12.9002 7.33621 12.8938 7.45751C12.995 7.47357 13.0973 7.48238 13.1999 7.4839H13.3002C13.6724 7.46405 14.0331 7.34817 14.3472 7.14754C14.6613 6.9469 14.9181 6.66835 15.0926 6.339C15.2671 6.00965 15.3534 5.64073 15.343 5.26815C15.3326 4.89557 15.2259 4.53203 15.0333 4.21292C14.8407 3.89381 14.5688 3.63001 14.2439 3.44721C13.9191 3.2644 13.5525 3.16881 13.1798 3.16975C12.8071 3.17068 12.4409 3.26812 12.117 3.45256C11.7932 3.637 11.5225 3.90216 11.3315 4.22223C11.8092 4.53411 12.202 4.9597 12.4747 5.4608C12.7473 5.96191 12.8913 6.52286 12.8938 7.09334Z" fill="#20ABAD"/>
<path d="M9.43143 9.45777C10.7344 9.45777 11.7906 8.40154 11.7906 7.09861C11.7906 5.79568 10.7344 4.73944 9.43143 4.73944C8.1285 4.73944 7.07227 5.79568 7.07227 7.09861C7.07227 8.40154 8.1285 9.45777 9.43143 9.45777Z" fill="#20ABAD"/>
<path d="M9.55827 10.7139C8.86902 10.6861 8.18126 10.798 7.53638 11.0429C6.89149 11.2878 6.30282 11.6606 5.80577 12.1389L5.67383 12.2867V15.6275C5.67589 15.7363 5.69937 15.8437 5.74292 15.9434C5.78648 16.0432 5.84926 16.1334 5.92768 16.2088C6.00609 16.2843 6.09861 16.3436 6.19995 16.3833C6.30129 16.423 6.40945 16.4424 6.51827 16.4403H12.5824C12.6913 16.4424 12.7994 16.423 12.9008 16.3833C13.0021 16.3436 13.0946 16.2843 13.173 16.2088C13.2515 16.1334 13.3142 16.0432 13.3578 15.9434C13.4013 15.8437 13.4248 15.7363 13.4269 15.6275V12.2972L13.3002 12.1389C12.8064 11.6591 12.2198 11.2852 11.5763 11.0402C10.9329 10.7952 10.2462 10.6841 9.55827 10.7139Z" fill="#20ABAD"/>
</g>
<defs>
<clipPath id="clip0_561_2119">
<rect width="19" height="19" fill="white"/>
</clipPath>
</defs>
</svg>
