<svg width="24" height="19" viewBox="0 0 24 19" fill="none" xmlns="http://www.w3.org/2000/svg">
<path d="M0.314196 14.0199L6.49696 10.2043C7.18641 9.76668 8.38738 10.0812 8.38738 10.683V13.1309H21.776C22.9992 13.1309 24 13.7464 24 14.4985C24 15.2507 22.9992 15.8661 21.776 15.8661H8.40962V18.3141C8.40962 18.9295 7.20865 19.2304 6.51921 18.7928L0.336439 14.9772C-0.108366 14.7174 -0.108368 14.2797 0.314196 14.0199Z" fill="#45E1E2"/>
<path d="M23.6858 4.01988L17.503 0.20431C16.8136 -0.233318 15.6126 0.0812273 15.6126 0.682966V3.13095H2.22402C1.00081 3.13095 0 3.74636 0 4.49854C0 5.25071 1.00081 5.86612 2.22402 5.86612H15.5904V8.31411C15.5904 8.92952 16.7913 9.23039 17.4808 8.79276L23.6636 4.97719C24.1084 4.71735 24.1084 4.27972 23.6858 4.01988Z" fill="#45E1E2"/>
</svg>
