<svg width="38" height="28" viewBox="0 0 38 28" fill="none" xmlns="http://www.w3.org/2000/svg">
<path d="M36.5762 4.85137C36.3724 4.03805 35.9638 3.29534 35.3921 2.69911C34.8204 2.10288 34.1061 1.67451 33.3222 1.45778C28.5694 0.87727 23.7854 0.615679 19 0.674639C14.2146 0.615679 9.4306 0.87727 4.67784 1.45778C3.89393 1.67451 3.17964 2.10288 2.60793 2.69911C2.03623 3.29534 1.62762 4.03805 1.42383 4.85137C0.903216 7.87463 0.650096 10.9408 0.667623 14.0117C0.649218 17.0984 0.902334 20.1804 1.42383 23.2195C1.63817 24.0197 2.05148 24.7476 2.62249 25.3306C3.19349 25.9136 3.9022 26.3313 4.67784 26.5419C9.4306 27.1224 14.2146 27.384 19 27.325C23.7854 27.384 28.5694 27.1224 33.3222 26.5419C34.0978 26.3313 34.8066 25.9136 35.3776 25.3306C35.9486 24.7476 36.3619 24.0197 36.5762 23.2195C37.0977 20.1804 37.3508 17.0984 37.3324 14.0117C37.3499 10.9408 37.0968 7.87463 36.5762 4.85137ZM15.2419 19.6835V8.38735L24.8435 14.0117L15.2419 19.6598V19.6835Z" fill="white"/>
</svg>
